# xmcd
#
# Track frame offsets:
#	150
#	29714
#	46055
#	62424
#	86793
#	99094
#	114659
#	132178
#	153982
#	181965
#
# Disc length: 2858 seconds
#
# Revision: 0
# Processed by: cddbd v1.5.2PL0 Copyright (c) Steve Scherf et al.
# Submitted via: EZCDAudioConverter 3.0.7.1
#
DISCID=790b280a
DTITLE=Yona - Naivi
DYEAR=2015
DGENRE=
TTITLE0=Matka
TTITLE1=Niitty ja taivas
TTITLE2=Syyt
TTITLE3=Uusi taivas
TTITLE4=Tule minun luokseni rakas
TTITLE5=Kappeli
TTITLE6=Anna mun nukkua
TTITLE7=Indigoi
TTITLE8=Lintu
TTITLE9=Aamu ei en‰‰ vihaa meit‰
EXTD=
EXTT0=
EXTT1=
EXTT2=
EXTT3=
EXTT4=
EXTT5=
EXTT6=
EXTT7=
EXTT8=
EXTT9=
PLAYORDER=
